<svg width="25" height="25" viewBox="0 0 25 25" fill="none" xmlns="http://www.w3.org/2000/svg">
<path d="M24.6281 5.14256C23.7583 5.52798 22.824 5.7884 21.8417 5.90611C22.8552 5.29964 23.6135 4.34513 23.975 3.22069C23.0228 3.7863 21.9806 4.18443 20.8937 4.39777C20.1629 3.61742 19.1949 3.1002 18.1399 2.92639C17.085 2.75259 16.0022 2.93193 15.0596 3.43658C14.1171 3.94123 13.3675 4.74294 12.9272 5.71726C12.487 6.69157 12.3808 7.78397 12.625 8.82486C10.6955 8.72798 8.80794 8.22647 7.08481 7.35288C5.36169 6.47929 3.8415 5.25315 2.62291 3.75402C2.20625 4.47277 1.96666 5.30611 1.96666 6.19361C1.9662 6.99256 2.16295 7.77928 2.53946 8.48395C2.91596 9.18863 3.46058 9.78948 4.125 10.2332C3.35445 10.2087 2.60091 10.0005 1.92708 9.6259V9.6884C1.927 10.809 2.31462 11.895 3.02415 12.7624C3.73368 13.6297 4.72143 14.2248 5.81979 14.4467C5.10498 14.6402 4.35556 14.6687 3.62812 14.5301C3.93802 15.4942 4.54166 16.3374 5.35455 16.9414C6.16743 17.5455 7.14887 17.8803 8.16146 17.8988C6.44253 19.2482 4.31967 19.9802 2.13437 19.9769C1.74727 19.977 1.36049 19.9544 0.97604 19.9092C3.19424 21.3355 5.77639 22.0924 8.41354 22.0894C17.3406 22.0894 22.2208 14.6957 22.2208 8.28319C22.2208 8.07486 22.2156 7.86444 22.2062 7.65611C23.1555 6.96962 23.9749 6.11954 24.626 5.14569L24.6281 5.14256V5.14256Z" fill="black" fill-opacity="0.59"/>
</svg>
