<svg width="29" height="29" viewBox="0 0 29 29" fill="none" xmlns="http://www.w3.org/2000/svg">
<path d="M14.5012 2.41895C7.82879 2.41895 2.41908 7.82865 2.41908 14.5011C2.41908 20.5307 6.83675 25.5283 12.6138 26.4382V17.9944H9.54462V14.5011H12.6138V11.8391C12.6138 8.80861 14.4178 7.13749 17.1765 7.13749C18.4984 7.13749 19.8831 7.37311 19.8831 7.37311V10.3444H18.3558C16.8575 10.3444 16.3886 11.2772 16.3886 12.233V14.4987H19.7369L19.2016 17.9919H16.3886V26.4358C22.1657 25.5307 26.5833 20.5319 26.5833 14.5011C26.5833 7.82865 21.1736 2.41895 14.5012 2.41895V2.41895Z" fill="black" fill-opacity="0.59"/>
</svg>
